<svg width="214" height="67" viewBox="0 0 214 67" fill="none" xmlns="http://www.w3.org/2000/svg">
<path d="M15.492 6.694L15.39 12.542C15.662 11.386 16.0473 10.264 16.546 9.176C17.0447 8.088 17.6227 7.07933 18.28 6.15C18.9373 5.198 19.6627 4.348 20.456 3.6C21.2493 2.82933 22.088 2.206 22.972 1.73C24.128 1.09533 25.2273 0.789331 26.27 0.811999C27.3353 0.811999 28.276 1.152 29.092 1.832C29.908 2.512 30.5653 3.532 31.064 4.892C31.5853 6.252 31.88 7.952 31.948 9.992C31.9933 11.896 31.778 13.7207 31.302 15.466C30.8487 17.1887 30.1913 18.798 29.33 20.294C28.4913 21.79 27.4827 23.1613 26.304 24.408C25.1253 25.6547 23.856 26.7313 22.496 27.638C21.136 28.5447 19.708 29.2813 18.212 29.848C16.7387 30.392 15.2653 30.732 13.792 30.868C13.7693 30.9813 13.7467 31.0607 13.724 31.106C13.724 31.1513 13.7127 31.2193 13.69 31.31C15.05 31.8993 16.3193 32.6247 17.498 33.486C18.6767 34.3247 19.7873 35.2653 20.83 36.308C21.8953 37.3507 22.8813 38.4613 23.788 39.64C24.7173 40.8187 25.59 42.0313 26.406 43.278C27.154 44.4567 27.868 45.556 28.548 46.576C29.228 47.596 29.8967 48.4913 30.554 49.262C31.234 50.0327 31.9027 50.6333 32.56 51.064C33.24 51.5173 33.9427 51.7553 34.668 51.778C35.416 51.8007 36.198 51.574 37.014 51.098C37.8527 50.622 38.7707 49.8513 39.768 48.786C39.836 48.6953 39.9153 48.718 40.006 48.854C40.1193 48.99 40.0967 49.1033 39.938 49.194C38.8047 50.418 37.7507 51.2907 36.776 51.812C35.8013 52.356 34.8833 52.6167 34.022 52.594C33.1607 52.594 32.3333 52.3447 31.54 51.846C30.7467 51.37 29.976 50.7127 29.228 49.874C28.48 49.058 27.732 48.106 26.984 47.018C26.2587 45.93 25.5107 44.7853 24.74 43.584C23.2893 41.3173 21.6233 39.2207 19.742 37.294C17.8833 35.3447 15.7753 33.724 13.418 32.432C13.1913 33.8827 12.8853 35.4127 12.5 37.022C12.1147 38.6313 11.6273 40.15 11.038 41.578C10.4713 43.0287 9.78 44.3093 8.964 45.42C8.148 46.5533 7.196 47.358 6.108 47.834C5.45067 48.1287 4.77067 48.276 4.068 48.276C3.388 48.2987 2.776 48.14 2.232 47.8C1.66533 47.46 1.20067 46.9273 0.838 46.202C0.452666 45.4767 0.237333 44.5247 0.192 43.346C0.146666 42.0767 0.316666 40.9547 0.702 39.98C1.08733 38.9827 1.60867 38.1327 2.266 37.43C2.92333 36.7273 3.68267 36.172 4.544 35.764C5.40533 35.3333 6.278 35.0387 7.162 34.88C7.27533 34.8347 7.35467 34.9027 7.4 35.084C7.44533 35.2427 7.38867 35.3447 7.23 35.39C6.414 35.5487 5.60933 35.8207 4.816 36.206C4.04533 36.5913 3.354 37.1127 2.742 37.77C2.10733 38.4047 1.60867 39.1753 1.246 40.082C0.860667 40.9887 0.679333 42.0427 0.702 43.244C0.724667 44.1733 0.883333 44.944 1.178 45.556C1.45 46.168 1.81267 46.6213 2.266 46.916C2.71933 47.2107 3.24067 47.3353 3.83 47.29C4.39667 47.2673 4.986 47.0747 5.598 46.712C6.57267 46.1227 7.4 45.2613 8.08 44.128C8.78267 43.0173 9.372 41.7707 9.848 40.388C10.324 39.0053 10.7093 37.566 11.004 36.07C11.3213 34.574 11.5933 33.146 11.82 31.786C11.4347 31.6273 11.038 31.48 10.63 31.344C10.2447 31.208 9.83667 31.1173 9.406 31.072C9.36067 31.072 9.32667 31.038 9.304 30.97C9.304 30.902 9.31533 30.8227 9.338 30.732C9.36067 30.6413 9.39467 30.562 9.44 30.494C9.48533 30.426 9.53067 30.392 9.576 30.392C10.0747 30.392 10.5167 30.392 10.902 30.392C11.2873 30.3693 11.684 30.3353 12.092 30.29C12.6587 26.5953 13.0327 22.8893 13.214 19.172C13.3953 15.4547 13.5087 11.692 13.554 7.884L15.492 6.694ZM15.22 15.602C15.1973 16.146 15.1407 16.996 15.05 18.152C14.982 19.2853 14.88 20.5433 14.744 21.926C14.6307 23.286 14.506 24.6913 14.37 26.142C14.234 27.5927 14.0867 28.9073 13.928 30.086C15.968 29.8593 17.9513 29.168 19.878 28.012C21.8273 26.856 23.55 25.3713 25.046 23.558C26.5647 21.722 27.766 19.6367 28.65 17.302C29.5567 14.9673 29.976 12.4967 29.908 9.89C29.8627 8.23533 29.67 6.81866 29.33 5.64C29.0127 4.46133 28.5593 3.54333 27.97 2.886C27.3807 2.22866 26.6893 1.84333 25.896 1.73C25.1027 1.594 24.23 1.764 23.278 2.24C22.258 2.73866 21.2833 3.464 20.354 4.416C19.4473 5.368 18.6313 6.44467 17.906 7.646C17.2033 8.84733 16.614 10.1393 16.138 11.522C15.662 12.882 15.356 14.242 15.22 15.602ZM42.2755 28.862C42.0715 29.4513 41.8675 30.1087 41.6635 30.834C41.4822 31.5367 41.3122 32.2733 41.1535 33.044C40.9948 33.8147 40.8588 34.5967 40.7455 35.39C40.6322 36.1833 40.5415 36.9427 40.4735 37.668C40.4508 37.8947 40.4168 38.246 40.3715 38.722C40.3488 39.198 40.3375 39.6853 40.3375 40.184C40.3602 40.6827 40.4055 41.1473 40.4735 41.578C40.5642 42.0087 40.7115 42.292 40.9155 42.428C41.2328 42.632 41.6408 42.6207 42.1395 42.394C42.6382 42.1673 43.1708 41.7933 43.7375 41.272C44.3042 40.7733 44.8708 40.1613 45.4375 39.436C46.0042 38.7107 46.5255 37.9513 47.0015 37.158C47.5908 36.138 48.0895 35.2313 48.4975 34.438C48.9282 33.622 49.2342 32.9533 49.4155 32.432C49.5062 32.2733 49.6195 32.228 49.7555 32.296C49.8915 32.364 49.9255 32.4773 49.8575 32.636C49.6082 33.248 49.2795 33.9733 48.8715 34.812C48.4862 35.6507 48.0215 36.5233 47.4775 37.43C46.9335 38.314 46.3442 39.1753 45.7095 40.014C45.0748 40.8527 44.4288 41.578 43.7715 42.19C43.1142 42.802 42.4682 43.2553 41.8335 43.55C41.1988 43.8447 40.6095 43.8787 40.0655 43.652C39.7482 43.516 39.4988 43.278 39.3175 42.938C39.1362 42.598 38.9888 42.1673 38.8755 41.646C38.7848 41.1247 38.7395 40.5353 38.7395 39.878C38.7395 39.198 38.7735 38.484 38.8415 37.736C38.9548 36.6933 39.1135 35.594 39.3175 34.438C39.5215 33.282 39.7708 32.1373 40.0655 31.004C39.7935 31.6387 39.4308 32.3867 38.9775 33.248C38.5242 34.0867 38.0255 34.9367 37.4815 35.798C36.9375 36.6367 36.3708 37.4413 35.7815 38.212C35.2148 38.9827 34.6595 39.606 34.1155 40.082C33.7075 40.4673 33.2882 40.7393 32.8575 40.898C32.4268 41.034 32.0415 41.034 31.7015 40.898C31.3615 40.7393 31.1008 40.4107 30.9195 39.912C30.7382 39.4133 30.6815 38.722 30.7495 37.838C30.8628 36.274 31.2595 34.8347 31.9395 33.52C32.5968 32.1827 33.3902 31.1287 34.3195 30.358C35.2715 29.5647 36.2688 29.1227 37.3115 29.032C38.3768 28.9187 39.3628 29.304 40.2695 30.188L40.8135 28.658C40.9722 28.2727 41.1422 28.0347 41.3235 27.944C41.5275 27.8307 41.6975 27.808 41.8335 27.876C41.9922 27.944 42.1168 28.08 42.2075 28.284C42.2982 28.4653 42.3208 28.658 42.2755 28.862ZM39.8955 30.596C39.2835 29.916 38.6035 29.5987 37.8555 29.644C37.1302 29.6667 36.4162 29.984 35.7135 30.596C35.0108 31.208 34.3535 32.058 33.7415 33.146C33.1295 34.2113 32.6422 35.4353 32.2795 36.818C32.0982 37.4527 32.0075 38.0307 32.0075 38.552C31.9848 39.0507 32.0528 39.4473 32.2115 39.742C32.3475 40.0367 32.5628 40.184 32.8575 40.184C33.1748 40.184 33.5828 39.9913 34.0815 39.606C34.5802 39.1527 35.1128 38.552 35.6795 37.804C36.2688 37.056 36.8242 36.2627 37.3455 35.424C37.8895 34.5627 38.3882 33.7127 38.8415 32.874C39.2948 32.0127 39.6462 31.2533 39.8955 30.596ZM58.1599 30.188C58.3412 29.8253 58.4545 29.4967 58.4999 29.202C58.5679 28.9073 58.6699 28.658 58.8059 28.454C58.8512 27.91 58.9645 27.57 59.1459 27.434C59.3499 27.298 59.5539 27.2753 59.7579 27.366C59.9619 27.4567 60.1432 27.6267 60.3019 27.876C60.4605 28.1027 60.5285 28.3293 60.5059 28.556C60.3472 31.0267 60.1319 33.4747 59.8599 35.9C59.6105 38.3253 59.4292 40.7733 59.3159 43.244C60.6759 43.1307 61.9225 42.7793 63.0559 42.19C64.1892 41.6007 65.2205 40.83 66.1499 39.878C67.1019 38.926 67.9632 37.8153 68.7339 36.546C69.5045 35.2767 70.2072 33.9053 70.8419 32.432C70.9099 32.2733 71.0005 32.228 71.1139 32.296C71.2499 32.364 71.3065 32.4773 71.2839 32.636C70.6039 34.132 69.8672 35.5373 69.0739 36.852C68.2805 38.144 67.3965 39.2887 66.4219 40.286C65.4472 41.2607 64.3705 42.0427 63.1919 42.632C62.0132 43.244 60.6759 43.618 59.1799 43.754L59.0439 44.876C59.8145 45.8053 60.5625 46.8027 61.2879 47.868C62.0359 48.956 62.7159 50.1007 63.3279 51.302C63.9399 52.5033 64.4499 53.75 64.8579 55.042C65.2885 56.334 65.5605 57.6373 65.6739 58.952C65.7872 60.6067 65.6965 62.012 65.4019 63.168C65.1072 64.324 64.6879 65.208 64.1439 65.82C63.6225 66.432 63.0105 66.7607 62.3079 66.806C61.6052 66.874 60.9139 66.6247 60.2339 66.058C59.5765 65.514 58.9645 64.6413 58.3979 63.44C57.8539 62.2387 57.4572 60.7087 57.2079 58.85C57.0719 57.6033 56.9925 56.3 56.9699 54.94C56.9472 53.58 56.9472 52.2313 56.9699 50.894C57.0152 49.5793 57.0719 48.31 57.1399 47.086C57.2079 45.862 57.2759 44.7513 57.3439 43.754C57.4799 41.5553 57.6385 39.368 57.8199 37.192C58.0239 34.9933 58.2505 32.7947 58.4999 30.596C58.2505 31.3667 57.9445 32.194 57.5819 33.078C57.2419 33.9393 56.8452 34.7893 56.3919 35.628C55.9612 36.444 55.4739 37.226 54.9299 37.974C54.4085 38.6993 53.8645 39.3 53.2979 39.776C52.3459 40.5693 51.4959 40.9773 50.7479 41C49.9999 41.0227 49.3992 40.7733 48.9459 40.252C48.4925 39.708 48.2205 38.9373 48.1299 37.94C48.0392 36.9427 48.1752 35.8207 48.5379 34.574C48.8325 33.3727 49.2972 32.33 49.9319 31.446C50.5665 30.562 51.3145 29.9047 52.1759 29.474C53.0599 29.0433 54.0119 28.8733 55.0319 28.964C56.0519 29.032 57.0945 29.44 58.1599 30.188ZM59.1119 45.488C59.0439 46.4173 58.9872 47.4147 58.9419 48.48C58.8965 49.568 58.8625 50.6787 58.8399 51.812C58.8172 52.968 58.8172 54.124 58.8399 55.28C58.8852 56.4587 58.9645 57.5807 59.0779 58.646C59.3725 61.094 59.8825 62.8847 60.6079 64.018C61.3559 65.1513 62.1039 65.6953 62.8519 65.65C63.5999 65.6273 64.2232 65.038 64.7219 63.882C65.2432 62.7487 65.4245 61.1393 65.2659 59.054C65.1752 57.8073 64.9372 56.5607 64.5519 55.314C64.1665 54.09 63.6905 52.9 63.1239 51.744C62.5572 50.588 61.9225 49.4773 61.2199 48.412C60.5172 47.3467 59.8145 46.372 59.1119 45.488ZM57.9899 30.596C57.0605 29.9613 56.1765 29.6553 55.3379 29.678C54.4992 29.678 53.7399 29.916 53.0599 30.392C52.4025 30.868 51.8359 31.5367 51.3599 32.398C50.8839 33.2367 50.5439 34.166 50.3399 35.186C50.1359 35.9567 50.0225 36.7273 49.9999 37.498C49.9999 38.2687 50.1019 38.892 50.3059 39.368C50.5325 39.844 50.8612 40.116 51.2919 40.184C51.7452 40.2293 52.3232 39.9233 53.0259 39.266C53.5699 38.8353 54.0912 38.28 54.5899 37.6C55.0885 36.8973 55.5532 36.1493 55.9839 35.356C56.4145 34.5627 56.7885 33.758 57.1059 32.942C57.4459 32.1033 57.7405 31.3213 57.9899 30.596ZM70.8379 32.126C70.9286 31.6953 71.0646 31.4347 71.2459 31.344C71.4499 31.2533 71.6539 31.2533 71.8579 31.344C72.0619 31.4347 72.2319 31.582 72.3679 31.786C72.5266 31.99 72.5946 32.1713 72.5719 32.33C72.5039 32.9193 72.4246 33.5313 72.3339 34.166C72.2659 34.8007 72.1979 35.4467 72.1299 36.104C72.0846 36.7613 72.0506 37.4187 72.0279 38.076C72.0052 38.7333 72.0166 39.368 72.0619 39.98C72.1072 40.864 72.2092 41.4533 72.3679 41.748C72.5492 42.0427 72.7532 42.1333 72.9799 42.02C73.2292 41.9293 73.4786 41.7027 73.7279 41.34C73.9999 40.9773 74.2606 40.592 74.5099 40.184C74.8726 39.572 75.2126 38.8693 75.5299 38.076C75.8699 37.26 76.1872 36.4213 76.4819 35.56C76.7766 34.676 77.0486 33.792 77.2979 32.908C77.5472 32.024 77.7626 31.1853 77.9439 30.392C78.0119 29.9387 78.1479 29.6667 78.3519 29.576C78.5786 29.4853 78.8052 29.508 79.0319 29.644C79.2586 29.7573 79.4399 29.95 79.5759 30.222C79.7346 30.494 79.7799 30.7547 79.7119 31.004C79.6439 31.616 79.5646 32.296 79.4739 33.044C79.4059 33.792 79.3492 34.5627 79.3039 35.356C79.2812 36.1267 79.2586 36.92 79.2359 37.736C79.2359 38.5293 79.2699 39.2773 79.3379 39.98C79.4512 41.1133 79.6666 41.9067 79.9839 42.36C80.3239 42.8133 80.7206 43.0173 81.1739 42.972C81.6499 42.9267 82.1826 42.6887 82.7719 42.258C83.3612 41.8273 83.9506 41.2833 84.5399 40.626C85.1519 39.946 85.7526 39.2093 86.3419 38.416C86.9312 37.6 87.4639 36.818 87.9399 36.07C88.4386 35.2993 88.8579 34.5853 89.1979 33.928C89.5379 33.2707 89.7759 32.772 89.9119 32.432C90.0026 32.2733 90.1159 32.228 90.2519 32.296C90.3879 32.364 90.4219 32.4773 90.3539 32.636C90.1952 33.044 89.9459 33.588 89.6059 34.268C89.2659 34.9253 88.8466 35.6507 88.3479 36.444C87.8719 37.2147 87.3392 38.0193 86.7499 38.858C86.1832 39.674 85.5826 40.4333 84.9479 41.136C84.3359 41.8613 83.7012 42.4847 83.0439 43.006C82.3866 43.55 81.7519 43.924 81.1399 44.128C80.5279 44.3093 79.9612 44.2527 79.4399 43.958C78.9412 43.686 78.4992 43.074 78.1139 42.122C77.8646 41.51 77.6719 40.83 77.5359 40.082C77.4226 39.334 77.3432 38.5973 77.2979 37.872C77.2752 37.124 77.2866 36.4213 77.3319 35.764C77.3772 35.084 77.4339 34.5173 77.5019 34.064C77.1392 35.1973 76.7312 36.3307 76.2779 37.464C75.8246 38.5747 75.3259 39.6173 74.7819 40.592C74.6232 40.932 74.4306 41.2833 74.2039 41.646C73.9772 42.0313 73.7166 42.36 73.4219 42.632C73.1499 42.904 72.8552 43.0967 72.5379 43.21C72.2432 43.346 71.9486 43.3233 71.6539 43.142C71.3139 42.938 71.0419 42.5753 70.8379 42.054C70.6566 41.5553 70.5319 40.966 70.4639 40.286C70.3732 39.5833 70.3279 38.8467 70.3279 38.076C70.3279 37.2827 70.3619 36.512 70.4299 35.764C70.4752 35.016 70.5432 34.3247 70.6339 33.69C70.7019 33.0327 70.7699 32.5113 70.8379 32.126ZM91.2565 34.37C91.1205 35.3447 91.0978 36.274 91.1885 37.158C91.2792 38.042 91.4832 38.824 91.8005 39.504C92.1178 40.184 92.5598 40.728 93.1265 41.136C93.7158 41.5667 94.4185 41.7933 95.2345 41.816C96.3905 41.8387 97.4898 41.5667 98.5325 41C99.5752 40.456 100.538 39.742 101.422 38.858C102.306 37.9513 103.1 36.9427 103.802 35.832C104.528 34.6987 105.128 33.5653 105.604 32.432C105.74 32.2733 105.854 32.228 105.944 32.296C106.058 32.364 106.092 32.4773 106.046 32.636C105.502 33.8827 104.868 35.084 104.142 36.24C103.417 37.396 102.601 38.4273 101.694 39.334C100.788 40.2407 99.7905 40.9773 98.7025 41.544C97.6372 42.1333 96.4925 42.462 95.2685 42.53C93.9312 42.6207 92.8318 42.36 91.9705 41.748C91.1092 41.136 90.4518 40.354 89.9985 39.402C89.5678 38.4273 89.3298 37.362 89.2845 36.206C89.2392 35.05 89.3752 33.962 89.6925 32.942C89.9872 31.8993 90.4518 31.0153 91.0865 30.29C91.7212 29.5647 92.4918 29.1567 93.3985 29.066C94.0332 28.998 94.6565 29.0887 95.2685 29.338C95.8805 29.5647 96.2658 30.0633 96.4245 30.834C96.5605 31.5367 96.4698 32.126 96.1525 32.602C95.8352 33.078 95.4045 33.4633 94.8605 33.758C94.3165 34.03 93.7158 34.2227 93.0585 34.336C92.4012 34.4267 91.8005 34.438 91.2565 34.37ZM91.3245 33.86C91.7325 33.8827 92.2198 33.86 92.7865 33.792C93.3758 33.724 93.9198 33.588 94.4185 33.384C94.9398 33.1573 95.3478 32.8513 95.6425 32.466C95.9598 32.058 96.0618 31.548 95.9485 30.936C95.8352 30.3693 95.5405 30.0067 95.0645 29.848C94.6112 29.6893 94.1692 29.7007 93.7385 29.882C93.4212 30.018 93.1378 30.222 92.8885 30.494C92.6392 30.766 92.4125 31.0833 92.2085 31.446C92.0045 31.8087 91.8232 32.2053 91.6645 32.636C91.5285 33.044 91.4152 33.452 91.3245 33.86ZM107.472 31.82C107.426 32.432 107.404 33.2707 107.404 34.336C107.404 35.4013 107.494 36.5007 107.676 37.634C107.812 38.4953 108.004 39.3227 108.254 40.116C108.503 40.8867 108.843 41.4987 109.274 41.952C109.727 42.428 110.271 42.6887 110.906 42.734C111.563 42.7793 112.356 42.5073 113.286 41.918C113.966 41.4193 114.623 40.8073 115.258 40.082C115.892 39.3567 116.493 38.586 117.06 37.77C117.626 36.9313 118.148 36.0587 118.624 35.152C119.1 34.2227 119.519 33.316 119.882 32.432C119.972 32.2733 120.086 32.228 120.222 32.296C120.358 32.364 120.392 32.4773 120.324 32.636C119.938 33.5653 119.496 34.506 118.998 35.458C118.522 36.3873 117.989 37.2827 117.4 38.144C116.833 39.0053 116.21 39.81 115.53 40.558C114.872 41.306 114.17 41.9293 113.422 42.428C111.563 43.7653 109.965 44.026 108.628 43.21C107.313 42.394 106.395 40.5013 105.874 37.532C105.579 35.8093 105.432 33.8373 105.432 31.616C105.432 29.3947 105.545 27.094 105.772 24.714C106.021 22.3113 106.372 19.92 106.826 17.54C107.302 15.16 107.846 12.95 108.458 10.91C109.092 8.84733 109.784 7.04533 110.532 5.504C111.302 3.96266 112.107 2.84066 112.946 2.138C113.648 1.54867 114.362 1.20866 115.088 1.118C115.836 1.00466 116.527 1.118 117.162 1.458C117.796 1.77533 118.363 2.308 118.862 3.056C119.36 3.78133 119.723 4.69933 119.95 5.81C120.267 7.374 120.301 9.006 120.052 10.706C119.825 12.3833 119.394 14.0607 118.76 15.738C118.125 17.4153 117.343 19.0587 116.414 20.668C115.507 22.2773 114.532 23.796 113.49 25.224C112.447 26.6293 111.404 27.8987 110.362 29.032C109.319 30.1653 108.356 31.0947 107.472 31.82ZM107.336 31.106C108.22 30.3807 109.172 29.4627 110.192 28.352C111.212 27.2413 112.22 26.0173 113.218 24.68C114.215 23.32 115.156 21.8693 116.04 20.328C116.924 18.764 117.66 17.1773 118.25 15.568C118.862 13.936 119.281 12.304 119.508 10.672C119.734 9.01733 119.7 7.43067 119.406 5.912C119.224 4.96 118.941 4.178 118.556 3.566C118.193 2.954 117.762 2.53467 117.264 2.308C116.765 2.05867 116.221 2.02467 115.632 2.206C115.042 2.38733 114.442 2.80667 113.83 3.464C113.059 4.28 112.368 5.35666 111.756 6.694C111.144 8.00867 110.6 9.482 110.124 11.114C109.648 12.7233 109.24 14.4347 108.9 16.248C108.56 18.0613 108.276 19.8633 108.05 21.654C107.823 23.422 107.653 25.122 107.54 26.754C107.426 28.386 107.358 29.8367 107.336 31.106ZM144.166 45.08C145.526 45.6013 147.09 46.134 148.858 46.678C150.648 47.2447 152.518 47.7547 154.468 48.208C156.417 48.684 158.4 49.0693 160.418 49.364C162.435 49.6813 164.373 49.84 166.232 49.84C167.184 49.84 168.102 49.7833 168.986 49.67C169.892 49.5567 170.742 49.3413 171.536 49.024C172.352 48.7293 173.1 48.31 173.78 47.766C174.46 47.2447 175.072 46.576 175.616 45.76C175.661 45.7147 175.695 45.692 175.718 45.692C175.899 45.692 175.99 45.794 175.99 45.998C175.99 46.0887 175.978 46.1453 175.956 46.168C174.8 47.8907 173.338 49.092 171.57 49.772C169.824 50.4747 167.898 50.826 165.79 50.826C163.84 50.826 161.823 50.6673 159.738 50.35C157.652 50.0327 155.624 49.6247 153.652 49.126C151.68 48.65 149.821 48.1287 148.076 47.562C146.353 46.9953 144.88 46.474 143.656 45.998C143.248 47.018 142.658 47.8113 141.888 48.378C141.117 48.9447 140.278 49.228 139.372 49.228C138.352 49.228 137.604 48.9673 137.128 48.446C136.652 47.9473 136.414 47.358 136.414 46.678C136.414 45.862 136.697 45.182 137.264 44.638C137.808 44.094 138.567 43.822 139.542 43.822C140.086 43.822 140.618 43.8787 141.14 43.992C141.684 44.128 142.171 44.2867 142.602 44.468C143.304 42.4507 143.894 40.2633 144.37 37.906C144.846 35.526 145.242 33.1007 145.56 30.63C145.877 28.1593 146.126 25.7 146.308 23.252C146.512 20.804 146.682 18.492 146.818 16.316C146.274 16.6787 145.718 16.9733 145.152 17.2C144.585 17.4267 143.973 17.54 143.316 17.54C143.18 17.54 143.112 17.4833 143.112 17.37C143.112 17.2113 143.191 17.132 143.35 17.132C143.962 17.132 144.551 17.0073 145.118 16.758C145.684 16.486 146.296 16.1687 146.954 15.806C147.044 14.0833 147.203 12.338 147.43 10.57C147.656 8.802 147.951 7.21533 148.314 5.81C148.699 4.382 149.152 3.226 149.674 2.342C150.218 1.43533 150.852 0.981998 151.578 0.981998C152.144 0.981998 152.518 1.288 152.7 1.9C152.904 2.48933 153.006 3.226 153.006 4.11C153.006 6.286 152.62 8.36 151.85 10.332C151.102 12.2813 150.059 13.902 148.722 15.194C148.45 17.846 148.223 20.464 148.042 23.048C147.883 25.6093 147.656 28.1367 147.362 30.63C147.09 33.1233 146.704 35.5827 146.206 38.008C145.73 40.4107 145.05 42.768 144.166 45.08ZM142.228 45.386C141.774 45.2047 141.264 45.0007 140.698 44.774C140.131 44.57 139.587 44.468 139.066 44.468C138.408 44.468 137.898 44.706 137.536 45.182C137.15 45.658 136.958 46.1907 136.958 46.78C136.958 47.2333 137.105 47.6413 137.4 48.004C137.672 48.3893 138.125 48.582 138.76 48.582C139.553 48.582 140.233 48.2647 140.8 47.63C141.366 46.9953 141.842 46.2473 142.228 45.386ZM152.598 6.116C152.643 5.79866 152.677 5.47 152.7 5.13C152.722 4.76733 152.734 4.42733 152.734 4.11C152.734 3.566 152.688 3.11266 152.598 2.75C152.53 2.38733 152.405 2.206 152.224 2.206C151.906 2.206 151.566 2.56866 151.204 3.294C150.864 4.01933 150.535 4.97133 150.218 6.15C149.9 7.32866 149.617 8.666 149.368 10.162C149.141 11.658 148.982 13.1653 148.892 14.684C149.844 13.596 150.648 12.3267 151.306 10.876C151.963 9.40267 152.394 7.816 152.598 6.116ZM158.029 32.126C158.12 31.6953 158.256 31.4347 158.437 31.344C158.641 31.2533 158.845 31.2533 159.049 31.344C159.253 31.4347 159.423 31.582 159.559 31.786C159.718 31.99 159.786 32.1713 159.763 32.33C159.695 32.9193 159.616 33.5313 159.525 34.166C159.457 34.8007 159.389 35.4467 159.321 36.104C159.276 36.7613 159.242 37.4187 159.219 38.076C159.197 38.7333 159.208 39.368 159.253 39.98C159.299 40.864 159.401 41.4533 159.559 41.748C159.741 42.0427 159.945 42.1333 160.171 42.02C160.421 41.9293 160.67 41.7027 160.919 41.34C161.191 40.9773 161.452 40.592 161.701 40.184C162.064 39.572 162.404 38.8693 162.721 38.076C163.061 37.26 163.379 36.4213 163.673 35.56C163.968 34.676 164.24 33.792 164.489 32.908C164.739 32.024 164.954 31.1853 165.135 30.392C165.203 29.9387 165.339 29.6667 165.543 29.576C165.77 29.4853 165.997 29.508 166.223 29.644C166.45 29.7573 166.631 29.95 166.767 30.222C166.926 30.494 166.971 30.7547 166.903 31.004C166.835 31.616 166.756 32.296 166.665 33.044C166.597 33.792 166.541 34.5627 166.495 35.356C166.473 36.1267 166.45 36.92 166.427 37.736C166.427 38.5293 166.461 39.2773 166.529 39.98C166.643 41.1133 166.858 41.9067 167.175 42.36C167.515 42.8133 167.912 43.0173 168.365 42.972C168.841 42.9267 169.374 42.6887 169.963 42.258C170.553 41.8273 171.142 41.2833 171.731 40.626C172.343 39.946 172.944 39.2093 173.533 38.416C174.123 37.6 174.655 36.818 175.131 36.07C175.63 35.2993 176.049 34.5853 176.389 33.928C176.729 33.2707 176.967 32.772 177.103 32.432C177.194 32.2733 177.307 32.228 177.443 32.296C177.579 32.364 177.613 32.4773 177.545 32.636C177.387 33.044 177.137 33.588 176.797 34.268C176.457 34.9253 176.038 35.6507 175.539 36.444C175.063 37.2147 174.531 38.0193 173.941 38.858C173.375 39.674 172.774 40.4333 172.139 41.136C171.527 41.8613 170.893 42.4847 170.235 43.006C169.578 43.55 168.943 43.924 168.331 44.128C167.719 44.3093 167.153 44.2527 166.631 43.958C166.133 43.686 165.691 43.074 165.305 42.122C165.056 41.51 164.863 40.83 164.727 40.082C164.614 39.334 164.535 38.5973 164.489 37.872C164.467 37.124 164.478 36.4213 164.523 35.764C164.569 35.084 164.625 34.5173 164.693 34.064C164.331 35.1973 163.923 36.3307 163.469 37.464C163.016 38.5747 162.517 39.6173 161.973 40.592C161.815 40.932 161.622 41.2833 161.395 41.646C161.169 42.0313 160.908 42.36 160.613 42.632C160.341 42.904 160.047 43.0967 159.729 43.21C159.435 43.346 159.14 43.3233 158.845 43.142C158.505 42.938 158.233 42.5753 158.029 42.054C157.848 41.5553 157.723 40.966 157.655 40.286C157.565 39.5833 157.519 38.8467 157.519 38.076C157.519 37.2827 157.553 36.512 157.621 35.764C157.667 35.016 157.735 34.3247 157.825 33.69C157.893 33.0327 157.961 32.5113 158.029 32.126ZM177.088 32.228C177.133 32.0013 177.258 31.8427 177.462 31.752C177.666 31.6613 177.881 31.6387 178.108 31.684C178.335 31.7067 178.527 31.786 178.686 31.922C178.845 32.058 178.901 32.228 178.856 32.432C178.539 34.404 178.323 35.9113 178.21 36.954C178.097 37.974 178.051 38.6653 178.074 39.028C178.119 39.3907 178.21 39.4927 178.346 39.334C178.505 39.1527 178.686 38.858 178.89 38.45C179.253 37.7473 179.581 37.0107 179.876 36.24C180.193 35.4467 180.499 34.6647 180.794 33.894C181.111 33.1007 181.44 32.3413 181.78 31.616C182.12 30.868 182.517 30.188 182.97 29.576C183.174 29.304 183.401 29.032 183.65 28.76C183.899 28.4653 184.16 28.2387 184.432 28.08C184.704 27.8987 184.987 27.808 185.282 27.808C185.599 27.7853 185.928 27.8987 186.268 28.148C186.699 28.4653 187.005 29.0093 187.186 29.78C187.367 30.5507 187.469 31.4347 187.492 32.432C187.515 33.4067 187.492 34.438 187.424 35.526C187.356 36.5913 187.311 37.566 187.288 38.45C187.288 39.5153 187.367 40.3427 187.526 40.932C187.685 41.5213 187.911 41.8953 188.206 42.054C188.501 42.2127 188.852 42.1787 189.26 41.952C189.691 41.7253 190.178 41.34 190.722 40.796C191.198 40.2973 191.685 39.7193 192.184 39.062C192.683 38.4047 193.159 37.7133 193.612 36.988C194.065 36.24 194.485 35.4807 194.87 34.71C195.255 33.9167 195.584 33.1573 195.856 32.432C195.947 32.2733 196.06 32.228 196.196 32.296C196.332 32.364 196.366 32.4773 196.298 32.636C196.026 33.384 195.697 34.1547 195.312 34.948C194.927 35.7413 194.496 36.5233 194.02 37.294C193.567 38.0647 193.079 38.8013 192.558 39.504C192.059 40.184 191.561 40.7847 191.062 41.306C190.79 41.6007 190.484 41.8727 190.144 42.122C189.804 42.394 189.441 42.6093 189.056 42.768C188.693 42.9267 188.308 42.9947 187.9 42.972C187.515 42.9493 187.118 42.802 186.71 42.53C186.279 42.19 185.973 41.5893 185.792 40.728C185.611 39.8667 185.497 38.926 185.452 37.906C185.429 36.8633 185.441 35.832 185.486 34.812C185.554 33.792 185.611 32.9647 185.656 32.33C185.679 31.718 185.656 31.106 185.588 30.494C185.543 29.8593 185.429 29.372 185.248 29.032C185.067 28.6693 184.817 28.522 184.5 28.59C184.183 28.6353 183.775 29.032 183.276 29.78C182.868 30.392 182.494 31.072 182.154 31.82C181.814 32.568 181.485 33.35 181.168 34.166C180.851 34.9593 180.533 35.7527 180.216 36.546C179.921 37.3393 179.604 38.076 179.264 38.756C179.151 38.96 179.026 39.2093 178.89 39.504C178.754 39.776 178.595 40.048 178.414 40.32C178.255 40.5693 178.074 40.7847 177.87 40.966C177.689 41.1247 177.496 41.204 177.292 41.204C176.975 41.204 176.748 41.0113 176.612 40.626C176.453 40.218 176.363 39.7193 176.34 39.13C176.317 38.518 176.34 37.8493 176.408 37.124C176.453 36.3987 176.521 35.7073 176.612 35.05C176.703 34.3927 176.805 33.8033 176.918 33.282C177.009 32.7607 177.065 32.4093 177.088 32.228ZM205.436 28.862C205.232 29.4513 205.028 30.1087 204.824 30.834C204.642 31.5367 204.472 32.2733 204.314 33.044C204.155 33.8147 204.019 34.5967 203.906 35.39C203.792 36.1833 203.702 36.9427 203.634 37.668C203.611 37.8947 203.577 38.246 203.532 38.722C203.509 39.198 203.498 39.6853 203.498 40.184C203.52 40.6827 203.566 41.1473 203.634 41.578C203.724 42.0087 203.872 42.292 204.076 42.428C204.393 42.632 204.801 42.6207 205.3 42.394C205.798 42.1673 206.331 41.7933 206.898 41.272C207.464 40.7733 208.031 40.1613 208.598 39.436C209.164 38.7107 209.686 37.9513 210.162 37.158C210.751 36.138 211.25 35.2313 211.658 34.438C212.088 33.622 212.394 32.9533 212.576 32.432C212.666 32.2733 212.78 32.228 212.916 32.296C213.052 32.364 213.086 32.4773 213.018 32.636C212.768 33.248 212.44 33.9733 212.032 34.812C211.646 35.6507 211.182 36.5233 210.638 37.43C210.094 38.314 209.504 39.1753 208.87 40.014C208.235 40.8527 207.589 41.578 206.932 42.19C206.274 42.802 205.628 43.2553 204.994 43.55C204.359 43.8447 203.77 43.8787 203.226 43.652C202.908 43.516 202.659 43.278 202.478 42.938C202.296 42.598 202.149 42.1673 202.036 41.646C201.945 41.1247 201.9 40.5353 201.9 39.878C201.9 39.198 201.934 38.484 202.002 37.736C202.115 36.6933 202.274 35.594 202.478 34.438C202.682 33.282 202.931 32.1373 203.226 31.004C202.954 31.6387 202.591 32.3867 202.138 33.248C201.684 34.0867 201.186 34.9367 200.642 35.798C200.098 36.6367 199.531 37.4413 198.942 38.212C198.375 38.9827 197.82 39.606 197.276 40.082C196.868 40.4673 196.448 40.7393 196.018 40.898C195.587 41.034 195.202 41.034 194.862 40.898C194.522 40.7393 194.261 40.4107 194.08 39.912C193.898 39.4133 193.842 38.722 193.91 37.838C194.023 36.274 194.42 34.8347 195.1 33.52C195.757 32.1827 196.55 31.1287 197.48 30.358C198.432 29.5647 199.429 29.1227 200.472 29.032C201.537 28.9187 202.523 29.304 203.43 30.188L203.974 28.658C204.132 28.2727 204.302 28.0347 204.484 27.944C204.688 27.8307 204.858 27.808 204.994 27.876C205.152 27.944 205.277 28.08 205.368 28.284C205.458 28.4653 205.481 28.658 205.436 28.862ZM203.056 30.596C202.444 29.916 201.764 29.5987 201.016 29.644C200.29 29.6667 199.576 29.984 198.874 30.596C198.171 31.208 197.514 32.058 196.902 33.146C196.29 34.2113 195.802 35.4353 195.44 36.818C195.258 37.4527 195.168 38.0307 195.168 38.552C195.145 39.0507 195.213 39.4473 195.372 39.742C195.508 40.0367 195.723 40.184 196.018 40.184C196.335 40.184 196.743 39.9913 197.242 39.606C197.74 39.1527 198.273 38.552 198.84 37.804C199.429 37.056 199.984 36.2627 200.506 35.424C201.05 34.5627 201.548 33.7127 202.002 32.874C202.455 32.0127 202.806 31.2533 203.056 30.596Z" fill="#FCFAFA"/>
</svg>
