<svg width="32" height="31" viewBox="0 0 32 31" fill="none" xmlns="http://www.w3.org/2000/svg">
<path d="M15.6558 10.3309C12.8097 10.3309 10.487 12.6536 10.487 15.4997C10.487 18.3458 12.8097 20.6685 15.6558 20.6685C18.5019 20.6685 20.8246 18.3458 20.8246 15.4997C20.8246 12.6536 18.5019 10.3309 15.6558 10.3309ZM31.1582 15.4997C31.1582 13.3593 31.1776 11.2383 31.0574 9.10176C30.9372 6.62013 30.3711 4.41768 28.5564 2.60299C26.7378 0.784418 24.5393 0.222174 22.0576 0.10197C19.9172 -0.0182344 17.7962 0.00115335 15.6597 0.00115335C13.5193 0.00115335 11.3983 -0.0182344 9.26173 0.10197C6.7801 0.222174 4.57765 0.788295 2.76296 2.60299C0.944391 4.42156 0.382147 6.62013 0.261943 9.10176C0.141739 11.2422 0.161126 13.3632 0.161126 15.4997C0.161126 17.6362 0.141739 19.7611 0.261943 21.8977C0.382147 24.3793 0.948269 26.5817 2.76296 28.3964C4.58153 30.215 6.7801 30.7773 9.26173 30.8975C11.4021 31.0177 13.5232 30.9983 15.6597 30.9983C17.8001 30.9983 19.9211 31.0177 22.0576 30.8975C24.5393 30.7773 26.7417 30.2111 28.5564 28.3964C30.375 26.5779 30.9372 24.3793 31.0574 21.8977C31.1815 19.7611 31.1582 17.6401 31.1582 15.4997V15.4997ZM15.6558 23.4526C11.2548 23.4526 7.70296 19.9007 7.70296 15.4997C7.70296 11.0987 11.2548 7.54686 15.6558 7.54686C20.0568 7.54686 23.6087 11.0987 23.6087 15.4997C23.6087 19.9007 20.0568 23.4526 15.6558 23.4526ZM23.9344 9.07849C22.9068 9.07849 22.077 8.2487 22.077 7.22115C22.077 6.1936 22.9068 5.3638 23.9344 5.3638C24.9619 5.3638 25.7917 6.1936 25.7917 7.22115C25.792 7.46514 25.7442 7.7068 25.651 7.93229C25.5577 8.15777 25.4209 8.36264 25.2484 8.53517C25.0759 8.7077 24.871 8.8445 24.6455 8.93774C24.42 9.03097 24.1784 9.0788 23.9344 9.07849V9.07849Z" fill="#484848"/>
</svg>
