<svg width="24" height="24" viewBox="0 0 24 24" fill="none" xmlns="http://www.w3.org/2000/svg">
<path d="M12 23.75C10.9258 23.75 9.85838 23.6194 8.85472 23.3023C9.06744 22.949 9.31883 22.5272 9.55114 22.0866C9.84415 21.5309 10.1162 20.9281 10.2436 20.3762L10.246 20.3659L10.2475 20.3554C10.285 20.093 10.4601 19.39 10.6319 18.7333C10.7024 18.4636 10.7712 18.2059 10.8276 17.9969C11.0539 18.2336 11.3418 18.4436 11.6645 18.6117C12.1774 18.8788 12.7967 19.05 13.44 19.05C17.2201 19.05 19.93 15.6119 19.93 11.36C19.93 7.20744 16.6031 4.15 12.32 4.15C9.66081 4.15 7.61408 5.05159 6.23191 6.45455C4.85192 7.85529 4.15 9.74013 4.15 11.68C4.15 12.5982 4.37874 13.6153 4.80483 14.4986C5.22979 15.3796 5.86402 16.1533 6.69298 16.5459L6.70662 16.5524L6.72094 16.5572C6.78181 16.5775 6.84692 16.5977 6.90905 16.6087C6.97145 16.6197 7.05337 16.6257 7.13906 16.5972C7.32555 16.535 7.39717 16.3591 7.43717 16.2391L7.45 16.2006V16.16C7.45 16.1609 7.45002 16.1608 7.45017 16.1593C7.45057 16.1554 7.45196 16.1421 7.45664 16.1156C7.46234 16.0834 7.47101 16.042 7.48245 15.992C7.5053 15.8922 7.53696 15.7679 7.572 15.6327C7.58131 15.5968 7.59088 15.5601 7.60057 15.5229C7.66234 15.2857 7.72902 15.0297 7.76515 14.849L7.77 14.8248V14.8L7.77 14.7965C7.77001 14.7568 7.77004 14.6795 7.7566 14.5989C7.74409 14.5239 7.71406 14.4059 7.62515 14.3118C7.19309 13.8034 6.81 12.7488 6.81 11.76C6.81 9.24804 8.70789 6.81 12 6.81C13.4228 6.81 14.6181 7.28985 15.4563 8.09978C16.2938 8.90907 16.79 10.0624 16.79 11.44C16.79 13.0422 16.3989 14.3692 15.7643 15.2879C15.1323 16.2029 14.2637 16.71 13.28 16.71C12.7466 16.71 12.2991 16.4973 12.0208 16.1685C11.7453 15.8429 11.622 15.3878 11.7616 14.8644L11.7618 14.8645L11.764 14.8542C11.8815 14.3259 12.0419 13.7894 12.2 13.2606C12.2543 13.0791 12.3082 12.8986 12.3601 12.7196C12.5592 12.0327 12.73 11.3604 12.73 10.8C12.73 10.318 12.5989 9.83799 12.3046 9.47306C12.0045 9.10092 11.5513 8.87 10.96 8.87C9.56376 8.87 8.55 10.2484 8.55 12C8.55 12.5453 8.63383 13.0066 8.71793 13.3325C8.76003 13.4956 8.80235 13.6254 8.83464 13.7156C8.84333 13.7398 8.85129 13.7612 8.85834 13.7796L8.82478 13.9205L8.68557 14.5045C8.56933 14.992 8.41184 15.6519 8.24686 16.3419C7.91668 17.7226 7.55707 19.221 7.43746 19.6994L7.43742 19.6994L7.4364 19.7038C7.21986 20.6421 7.25449 21.8761 7.31941 22.811C3.20314 20.9968 0.25 16.8667 0.25 12C0.25 5.49807 5.49807 0.25 12 0.25C18.5019 0.25 23.75 5.49807 23.75 12C23.75 18.5019 18.5019 23.75 12 23.75Z" fill="#FCFAFA" stroke="#FCFAFA" stroke-width="0.5"/>
</svg>
