<svg width="25" height="25" viewBox="0 0 25 25" fill="none" xmlns="http://www.w3.org/2000/svg">
<path d="M12.5 24.75C11.3757 24.75 10.2583 24.6127 9.20793 24.2792C9.43093 23.9088 9.69554 23.4654 9.93989 23.002C10.245 22.4234 10.5279 21.7964 10.6603 21.2229L10.6627 21.2125L10.6642 21.202C10.7033 20.928 10.8859 20.195 11.0648 19.5112C11.1403 19.2225 11.2139 18.947 11.2735 18.7261C11.5101 18.9772 11.8139 19.2001 12.1553 19.378C12.6882 19.6555 13.3317 19.8333 14 19.8333C17.9301 19.8333 20.75 16.2586 20.75 11.8333C20.75 7.5141 17.2898 4.33333 12.8333 4.33333C10.0658 4.33333 7.93658 5.27159 6.49899 6.7308C5.06359 8.18779 4.33333 10.1485 4.33333 12.1667C4.33333 13.1215 4.57124 14.1794 5.01441 15.0982C5.45646 16.0146 6.11568 16.8183 6.97631 17.2259L6.98995 17.2324L7.00428 17.2372C7.06764 17.2583 7.13484 17.2792 7.19874 17.2905C7.26291 17.3018 7.34628 17.3078 7.43322 17.2788C7.62221 17.2158 7.6955 17.0374 7.73717 16.9124L7.75 16.8739V16.8333C7.75 16.8339 7.75002 16.8337 7.75013 16.8326C7.7505 16.8288 7.75191 16.8145 7.75708 16.7853C7.76305 16.7515 7.77213 16.7082 7.78406 16.656C7.80791 16.5519 7.84092 16.4222 7.87742 16.2815C7.88712 16.244 7.8971 16.2057 7.90719 16.167C7.97155 15.9199 8.04091 15.6535 8.07848 15.4657L8.08333 15.4414V15.4167V15.4131C8.08335 15.3717 8.08337 15.292 8.06951 15.2089C8.0566 15.1314 8.02573 15.0109 7.93511 14.9151C7.48307 14.3834 7.08333 13.2822 7.08333 12.25C7.08333 9.62805 9.06456 7.08333 12.5 7.08333C13.9845 7.08333 15.2323 7.58402 16.1075 8.42978C16.9821 9.2749 17.5 10.4791 17.5 11.9167C17.5 13.5872 17.0922 14.9717 16.4297 15.9308C15.7698 16.8863 14.862 17.4167 13.8333 17.4167C13.275 17.4167 12.8057 17.194 12.5138 16.8489C12.2245 16.5071 12.0953 16.0295 12.2416 15.4811L12.2418 15.4811L12.244 15.4709C12.3664 14.9201 12.5337 14.3607 12.6984 13.8098C12.7549 13.6209 12.8111 13.4329 12.8651 13.2467C13.0725 12.531 13.25 11.832 13.25 11.25C13.25 10.7497 13.1139 10.2522 12.8092 9.87431C12.4987 9.48925 12.0296 9.25 11.4167 9.25C9.97043 9.25 8.91667 10.6784 8.91667 12.5C8.91667 13.0669 9.00383 13.5466 9.09126 13.8854C9.13503 14.055 9.17902 14.1899 9.21256 14.2835C9.22206 14.31 9.23072 14.3333 9.23831 14.353L9.20261 14.5029L9.0576 15.1113C8.93651 15.6191 8.77246 16.3065 8.60061 17.0252C8.25668 18.4634 7.88207 20.0243 7.75746 20.5227L7.75742 20.5227L7.7564 20.5271C7.52986 21.5088 7.5676 22.8023 7.63597 23.7779C3.33637 21.8902 0.25 17.5801 0.25 12.5C0.25 5.7214 5.7214 0.25 12.5 0.25C19.2786 0.25 24.75 5.7214 24.75 12.5C24.75 19.2786 19.2786 24.75 12.5 24.75Z" fill="#484848" stroke="#484848" stroke-width="0.5"/>
</svg>
