<svg width="32" height="31" viewBox="0 0 32 31" fill="none" xmlns="http://www.w3.org/2000/svg">
<path d="M15.8199 30.75C14.3954 30.75 12.9779 30.5729 11.6473 30.1401C11.9316 29.6682 12.2757 29.095 12.5923 28.4945C12.9699 27.7784 13.3179 27.0064 13.4802 26.3029L13.4826 26.2925L13.4841 26.282C13.5332 25.938 13.7609 25.025 13.9822 24.1787C14.0884 23.7728 14.1915 23.388 14.2697 23.099C14.5667 23.4369 14.965 23.7384 15.4203 23.9755C16.0731 24.3155 16.8617 24.5333 17.6799 24.5333C22.51 24.5333 25.9899 20.1386 25.9899 14.6733C25.9899 9.3541 21.7297 5.43333 16.2333 5.43333C12.8158 5.43333 10.1915 6.59159 8.42144 8.3883C6.65353 10.1828 5.75328 12.5985 5.75328 15.0867C5.75328 16.2615 6.04618 17.5644 6.59186 18.6957C7.1364 19.8246 7.94563 20.8083 8.99626 21.3059L9.0099 21.3124L9.02422 21.3172C9.10259 21.3433 9.18228 21.3679 9.25681 21.3811C9.33161 21.3943 9.42373 21.4003 9.51817 21.3688C9.72216 21.3008 9.80545 21.1074 9.85712 20.9524L9.86995 20.9139V20.8733C9.86995 20.8735 9.86995 20.8735 9.86996 20.8733C9.87001 20.8722 9.87027 20.8667 9.87166 20.8551C9.87324 20.842 9.87583 20.8248 9.87964 20.8033C9.8873 20.76 9.89879 20.7052 9.91369 20.6401C9.94348 20.51 9.98462 20.3485 10.0299 20.174C10.0419 20.1274 10.0543 20.0798 10.0669 20.0317C10.1467 19.725 10.2322 19.3967 10.2784 19.1657L10.2833 19.1414V19.1167V19.1129C10.2833 19.0616 10.2833 18.967 10.267 18.8689C10.2516 18.7765 10.2157 18.6408 10.1148 18.5349C9.54292 17.8631 9.04328 16.482 9.04328 15.19C9.04328 11.908 11.5245 8.72333 15.8199 8.72333C17.6744 8.72333 19.2372 9.34902 20.335 10.4098C21.4321 11.4699 22.0799 12.9791 22.0799 14.7767C22.0799 16.8572 21.5722 18.5867 20.7422 19.7883C19.9147 20.9863 18.7719 21.6567 17.4733 21.6567C16.7649 21.6567 16.1657 21.374 15.7912 20.9314C15.4194 20.4921 15.2553 19.8795 15.4415 19.1811L15.4417 19.1811L15.444 19.1709C15.5963 18.4856 15.8046 17.789 16.009 17.1053C16.079 16.8714 16.1484 16.6391 16.2151 16.4092C16.4725 15.521 16.6899 14.662 16.6899 13.95C16.6899 13.3397 16.5238 12.7372 16.1566 12.2818C15.7836 11.8193 15.2195 11.53 14.4766 11.53C12.7304 11.53 11.4366 13.2584 11.4366 15.5C11.4366 16.1969 11.5438 16.7866 11.6512 17.2029C11.705 17.4112 11.759 17.5768 11.8 17.6913C11.8145 17.7319 11.8274 17.766 11.8381 17.7935L11.7895 17.9975L11.6097 18.7519C11.4596 19.3816 11.2562 20.234 11.0431 21.1252C10.6166 22.9084 10.152 24.8443 9.99741 25.4627L9.99737 25.4627L9.99635 25.4671C9.70981 26.7088 9.76653 28.3599 9.85548 29.5791C4.45587 27.2504 0.569946 21.8601 0.569946 15.5C0.569946 7.0614 7.38135 0.25 15.8199 0.25C24.2585 0.25 31.0699 7.0614 31.0699 15.5C31.0699 23.9386 24.2585 30.75 15.8199 30.75Z" fill="#484848" stroke="#484848" stroke-width="0.5"/>
</svg>
